<?xml version="1.0" encoding="UTF-8"?><svg id="uuid-43a5f1fa-dcbf-4736-998c-becb4b8ccb89" xmlns="http://www.w3.org/2000/svg" viewBox="0 0 500 402.58"><defs><style>.uuid-ee03e844-e74d-4346-bbe5-0f6d64a18dcc{fill:#fff;}.uuid-fa5690b1-50be-4f67-b361-cadc8abf017e{fill:#ce1a26;}.uuid-4e1fe645-85e2-4919-a3c5-330989c33083{fill:#19168d;}</style></defs><g><path class="uuid-4e1fe645-85e2-4919-a3c5-330989c33083" d="M0,51.63C0,17.21,13.67,0,41,0c13.16,0,23.28,4.56,30.88,13.16,7.09,9.11,10.63,21.77,10.63,38.47V338.15h-26.83V178.69H26.83v159.46H0V51.63Zm55.69,100.23V27.84H26.83v124.02h28.85Z"/><path class="uuid-4e1fe645-85e2-4919-a3c5-330989c33083" d="M100.23,1.52h46.57c12.66,0,21.77,4.05,27.34,12.66,5.57,8.61,8.6,21.77,8.6,40.5V125.04c0,35.94-12.15,53.66-35.94,53.66h-19.74v159.46h-26.83V1.52Zm55.69,150.35V27.84h-28.85v124.02h28.85Z"/><path class="uuid-4e1fe645-85e2-4919-a3c5-330989c33083" d="M224.26,226.78v84.54h28.35v-88.59c0-7.59-.51-13.16-1.52-16.2s-3.54-6.58-8.1-10.12l-26.32-23.28c-12.65-11.64-19.24-26.83-19.24-46.07V51.63c0-16.71,3.54-29.36,10.63-38.47,7.09-8.61,17.21-13.16,30.37-13.16s23.28,4.56,30.37,13.16c7.09,9.11,10.63,21.77,10.63,38.47v62.26h-26.83V27.84h-28.35v100.23c0,10.13,2.53,17.72,8.1,22.78l35.43,33.92c7.59,7.59,11.64,17.71,11.64,31.38v71.38c0,16.71-3.54,29.36-10.63,38.47-7.09,9.11-17.21,13.67-30.37,13.67s-22.78-4.56-29.87-13.67c-7.59-9.11-11.14-21.77-11.14-38.47v-60.75h26.83Z"/></g><g><g><g><path class="uuid-4e1fe645-85e2-4919-a3c5-330989c33083" d="M377.05,132.85c4.38,.5,9.22,.85,14.54,1.03,8.37,.29,16.41,.08,24.13-.61,7.71-.7,14.56-1.75,20.56-3.16,16.63-3.91,21.76-8.24,15.37-12.96-3.52-2.62-10.44-5.22-20.75-7.79l-30.57-7.62-2.23,.52c3.9,1.12,5.82,1.99,5.78,2.58-.02,.6-2.23,1.41-6.62,2.45l-53.51,12.59c-4.52,1.06-7.97,1.56-10.33,1.51-2.35-.05-5.85-.54-10.44-1.46l-2.23,.52,31.52,7.86c8.46,2.11,16.71,3.62,24.79,4.53Zm-25.54-9.21l61.2-14.4c1.99-.47,3.74-.66,5.24-.57,1.48,.09,3.5,.45,6.06,1.09,10.23,2.55,15.77,5.23,16.66,8.03,1,3.27-4.66,6.36-17,9.26-13.84,3.25-28.01,4.45-42.53,3.61-9.44-.55-18.59-1.93-27.45-4.14-2.85-.71-4.4-1.25-4.67-1.62-.28-.37,.56-.79,2.51-1.25Z"/><path class="uuid-4e1fe645-85e2-4919-a3c5-330989c33083" d="M489.1,119.04c.02-.22,.07-.44,.07-.65,.04-6.46-9.22-12.19-26.79-16.57-36.44-9.08-97.5-9.08-136.13,0-19.79,4.66-30.71,11-30.76,17.86,0,.35,.04,.69,.09,1.04l.07,9.4c.04,5.82,8.78,11.58,26.36,16.01,36.67,9.25,97.91,9.25,136.78,0,20.23-4.82,30.42-11.19,30.38-17.5l-.07-9.58Zm-162.48-15.65c19.21-4.52,44.01-6.78,68.53-6.78s48.73,2.26,66.84,6.77c16.28,4.06,25.6,9.52,25.56,14.99-.04,5.95-10.8,11.89-29.52,16.3-38.42,9.04-99.14,9.04-135.37,0-16.28-4.06-25.59-9.52-25.55-14.99,.04-5.95,10.8-11.89,29.51-16.29Z"/><path class="uuid-4e1fe645-85e2-4919-a3c5-330989c33083" d="M331.85,134c15.73,3.92,36.78,5.88,58.06,5.88s42.79-1.96,59.47-5.88c17.14-4.03,26.6-9.54,26.64-15.52,.04-5.63-7.99-10.62-23.2-14.41-31.45-7.84-84.18-7.84-117.53,0-17.13,4.03-26.59,9.54-26.63,15.52-.04,5.63,7.98,10.62,23.19,14.41Zm3.81-28.35c33.14-7.8,85.52-7.8,116.77-.01,14,3.49,22.01,8.17,21.98,12.83-.03,5.08-9.29,10.17-25.39,13.96-33.13,7.79-85.51,7.8-116.76,0-13.99-3.49-22-8.16-21.97-12.83,.03-5.08,9.28-10.17,25.38-13.95Z"/></g><g><path class="uuid-ee03e844-e74d-4346-bbe5-0f6d64a18dcc" d="M381.13,130.66c14.52,.84,28.7-.36,42.53-3.61,12.34-2.9,18.01-5.99,17-9.26-.88-2.8-6.43-5.48-16.66-8.03-2.56-.64-4.57-1-6.06-1.09-1.5-.09-3.25,.11-5.24,.57l-61.2,14.4c-1.95,.46-2.79,.88-2.51,1.25,.27,.38,1.82,.91,4.67,1.62,8.87,2.21,18.02,3.59,27.45,4.14Z"/><path class="uuid-ee03e844-e74d-4346-bbe5-0f6d64a18dcc" d="M332.25,132.43c31.25,7.79,83.63,7.79,116.76,0,16.1-3.79,25.36-8.87,25.39-13.96,.03-4.66-7.98-9.34-21.98-12.83-31.24-7.79-83.63-7.79-116.77,.01-16.1,3.79-25.35,8.87-25.38,13.95-.03,4.66,7.98,9.34,21.97,12.83Zm-9.27-12.49c4.59,.92,8.09,1.41,10.44,1.46,2.37,.05,5.82-.45,10.33-1.51l53.51-12.59c4.39-1.03,6.6-1.85,6.62-2.45,.04-.6-1.88-1.46-5.78-2.58l2.23-.52,30.57,7.62c10.31,2.57,17.22,5.17,20.75,7.79,6.4,4.72,1.27,9.04-15.37,12.96-6,1.41-12.85,2.46-20.56,3.16-7.72,.69-15.76,.9-24.13,.61-5.31-.18-10.16-.53-14.54-1.03-8.08-.91-16.33-2.42-24.79-4.53l-31.52-7.86,2.23-.52Z"/><path class="uuid-ee03e844-e74d-4346-bbe5-0f6d64a18dcc" d="M297.11,119.69c-.04,5.47,9.28,10.93,25.55,14.99,36.23,9.03,96.95,9.03,135.37,0,18.72-4.4,29.48-10.34,29.52-16.3,.04-5.47-9.28-10.93-25.56-14.99-18.11-4.51-42.34-6.77-66.84-6.77s-49.31,2.26-68.53,6.78c-18.72,4.4-29.47,10.34-29.51,16.29Zm155.71-15.62c15.22,3.79,23.24,8.78,23.2,14.41-.04,5.98-9.5,11.49-26.64,15.52-16.67,3.92-38.19,5.88-59.47,5.88s-42.33-1.96-58.06-5.88c-15.21-3.79-23.23-8.77-23.19-14.41,.04-5.98,9.5-11.49,26.63-15.52,33.35-7.84,86.07-7.84,117.53,0Z"/></g></g><g><g><path class="uuid-4e1fe645-85e2-4919-a3c5-330989c33083" d="M377.05,114.3c4.38,.5,9.22,.85,14.54,1.03,8.37,.29,16.41,.08,24.13-.61,7.71-.7,14.56-1.75,20.56-3.16,16.63-3.91,21.76-8.24,15.37-12.96-3.52-2.62-10.44-5.22-20.75-7.79l-30.57-7.62-2.23,.52c3.9,1.12,5.82,1.99,5.78,2.58-.02,.6-2.23,1.41-6.62,2.45l-53.51,12.59c-4.52,1.06-7.97,1.56-10.33,1.51-2.35-.05-5.85-.54-10.44-1.46l-2.23,.52,31.52,7.86c8.46,2.11,16.71,3.62,24.79,4.53Zm-25.54-9.21l61.2-14.4c1.99-.47,3.74-.66,5.24-.57,1.48,.09,3.5,.45,6.06,1.09,10.23,2.55,15.77,5.23,16.66,8.03,1,3.27-4.66,6.36-17,9.26-13.84,3.25-28.01,4.45-42.53,3.61-9.44-.55-18.59-1.93-27.45-4.14-2.85-.71-4.4-1.25-4.67-1.62-.28-.37,.56-.79,2.51-1.25Z"/><path class="uuid-4e1fe645-85e2-4919-a3c5-330989c33083" d="M489.1,100.49c.02-.22,.07-.44,.07-.65,.04-6.46-9.22-12.19-26.79-16.57-36.44-9.08-97.5-9.08-136.13,0-19.79,4.66-30.71,11-30.76,17.86,0,.35,.04,.69,.09,1.04l.07,9.4c.04,5.82,8.78,11.58,26.36,16.01,36.67,9.25,97.91,9.25,136.78,0,20.23-4.82,30.42-11.19,30.38-17.5l-.07-9.58Zm-162.48-15.65c19.21-4.52,44.01-6.78,68.53-6.78s48.73,2.26,66.84,6.77c16.28,4.06,25.6,9.52,25.56,14.99-.04,5.95-10.8,11.89-29.52,16.3-38.42,9.04-99.14,9.04-135.37,0-16.28-4.06-25.59-9.52-25.55-14.99,.04-5.95,10.8-11.89,29.51-16.29Z"/><path class="uuid-4e1fe645-85e2-4919-a3c5-330989c33083" d="M331.85,115.45c15.73,3.92,36.78,5.88,58.06,5.88s42.79-1.96,59.47-5.88c17.14-4.03,26.6-9.54,26.64-15.52,.04-5.63-7.99-10.62-23.2-14.41-31.45-7.84-84.18-7.84-117.53,0-17.13,4.03-26.59,9.54-26.63,15.52-.04,5.63,7.98,10.62,23.19,14.41Zm3.81-28.35c33.14-7.8,85.52-7.8,116.77-.01,14,3.49,22.01,8.17,21.98,12.83-.03,5.08-9.29,10.17-25.39,13.96-33.13,7.79-85.51,7.8-116.76,0-13.99-3.49-22-8.16-21.97-12.83,.03-5.08,9.28-10.17,25.38-13.95Z"/></g><g><path class="uuid-ee03e844-e74d-4346-bbe5-0f6d64a18dcc" d="M381.13,112.11c14.52,.84,28.7-.36,42.53-3.61,12.34-2.9,18.01-5.99,17-9.26-.88-2.8-6.43-5.48-16.66-8.03-2.56-.64-4.57-1-6.06-1.09-1.5-.09-3.25,.11-5.24,.57l-61.2,14.4c-1.95,.46-2.79,.88-2.51,1.25,.27,.38,1.82,.91,4.67,1.62,8.87,2.21,18.02,3.59,27.45,4.14Z"/><path class="uuid-ee03e844-e74d-4346-bbe5-0f6d64a18dcc" d="M332.25,113.88c31.25,7.79,83.63,7.79,116.76,0,16.1-3.79,25.36-8.87,25.39-13.96,.03-4.66-7.98-9.34-21.98-12.83-31.24-7.79-83.63-7.79-116.77,.01-16.1,3.79-25.35,8.87-25.38,13.95-.03,4.66,7.98,9.34,21.97,12.83Zm-9.27-12.49c4.59,.92,8.09,1.41,10.44,1.46,2.37,.05,5.82-.45,10.33-1.51l53.51-12.59c4.39-1.03,6.6-1.85,6.62-2.45,.04-.6-1.88-1.46-5.78-2.58l2.23-.52,30.57,7.62c10.31,2.57,17.22,5.17,20.75,7.79,6.4,4.72,1.27,9.04-15.37,12.96-6,1.41-12.85,2.46-20.56,3.16-7.72,.69-15.76,.9-24.13,.61-5.31-.18-10.16-.53-14.54-1.03-8.08-.91-16.33-2.42-24.79-4.53l-31.52-7.86,2.23-.52Z"/><path class="uuid-ee03e844-e74d-4346-bbe5-0f6d64a18dcc" d="M297.11,101.14c-.04,5.47,9.28,10.93,25.55,14.99,36.23,9.03,96.95,9.03,135.37,0,18.72-4.4,29.48-10.34,29.52-16.3,.04-5.47-9.28-10.93-25.56-14.99-18.11-4.51-42.34-6.77-66.84-6.77s-49.31,2.26-68.53,6.78c-18.72,4.4-29.47,10.34-29.51,16.29Zm155.71-15.62c15.22,3.79,23.24,8.78,23.2,14.41-.04,5.98-9.5,11.49-26.64,15.52-16.67,3.92-38.19,5.88-59.47,5.88s-42.33-1.96-58.06-5.88c-15.21-3.79-23.23-8.77-23.19-14.41,.04-5.98,9.5-11.49,26.63-15.52,33.35-7.84,86.07-7.84,117.53,0Z"/></g></g><g><g><path class="uuid-ee03e844-e74d-4346-bbe5-0f6d64a18dcc" d="M334.9,94.34c35.96,8.96,96.21,11.22,134.3,5.02,18.07-2.94,28.98-7.56,29.18-12.37,.19-4.58-9.06-9.54-25.37-13.61-22.23-5.54-53.76-8.52-83.58-8.52-18.41,0-36.18,1.13-50.72,3.5-18.07,2.94-28.98,7.56-29.18,12.37-.19,4.58,9.06,9.54,25.37,13.61Zm12.5-25.35c33.04-5.38,85.32-3.42,116.52,4.36,10.64,2.65,23.28,7.11,23.02,13.26-.27,6.49-14.53,10.17-26.45,12.1-12.61,2.05-28.03,3.04-44,3.04-25.88,0-53.22-2.58-72.51-7.39-10.65-2.65-23.29-7.11-23.03-13.27,.27-6.49,14.53-10.17,26.45-12.1Z"/><path class="uuid-ee03e844-e74d-4346-bbe5-0f6d64a18dcc" d="M392.78,93.32c14.5,1.26,28.67,.77,42.49-1.48,12.33-2.01,17.99-4.42,16.98-7.23-.87-2.41-6.44-4.9-16.66-7.45-2.54-.63-4.57-1.02-6.07-1.15-1.48-.13-3.23-.03-5.24,.29l-61.13,9.94c-1.96,.32-2.79,.64-2.52,.97,.28,.33,1.85,.85,4.69,1.55,8.87,2.21,18.01,3.73,27.46,4.55Z"/><path class="uuid-ee03e844-e74d-4346-bbe5-0f6d64a18dcc" d="M344.38,92.8c31.02,7.73,82.99,9.67,115.85,4.33,15.54-2.53,24.92-6.48,25.09-10.57,.16-3.84-7.99-8.19-21.8-11.63-19.18-4.78-46.38-7.35-72.11-7.35-15.88,0-31.21,.98-43.75,3.02-15.54,2.53-24.92,6.48-25.09,10.57-.16,3.84,7.99,8.19,21.81,11.63Zm-9.77-10.76c4.62,.95,8.09,1.5,10.45,1.63,2.38,.13,5.81-.17,10.33-.9l53.46-8.7c4.39-.71,6.58-1.32,6.63-1.83,.03-.51-1.91-1.31-5.79-2.42l2.23-.36,30.59,7.63c10.29,2.57,17.21,5.03,20.74,7.4,6.39,4.25,1.28,7.74-15.35,10.44-5.98,.97-12.84,1.61-20.53,1.91-7.71,.3-15.75,.18-24.12-.38-5.3-.36-10.14-.83-14.53-1.43-8.06-1.07-16.34-2.67-24.8-4.78l-31.52-7.86,2.23-.36Z"/></g><g><path class="uuid-4e1fe645-85e2-4919-a3c5-330989c33083" d="M343.99,94.37c19.29,4.81,46.63,7.39,72.51,7.39,15.97,0,31.39-.98,44-3.04,11.92-1.94,26.18-5.61,26.45-12.1,.26-6.16-12.38-10.61-23.02-13.26-31.2-7.78-83.47-9.74-116.52-4.36-11.92,1.94-26.18,5.61-26.45,12.1-.26,6.16,12.38,10.61,23.03,13.27Zm3.67-23.78c12.54-2.04,27.87-3.02,43.75-3.02,25.73,0,52.93,2.57,72.11,7.35,13.81,3.44,21.96,7.79,21.8,11.63-.17,4.09-9.55,8.05-25.09,10.57-32.87,5.35-84.84,3.4-115.85-4.33-13.82-3.45-21.97-7.79-21.81-11.63,.17-4.09,9.55-8.05,25.09-10.57Z"/><path class="uuid-4e1fe645-85e2-4919-a3c5-330989c33083" d="M500,87.06c.29-7.05-14.3-12.18-26.59-15.25-36.14-9.01-96.68-11.28-134.95-5.05-13.76,2.24-30.23,6.47-30.54,13.9-.02,.39,.03,.77,.1,1.15l-.31,9.44c0,.29,.02,.59,.07,.88,.02,.1,.06,.2,.08,.3,.05,.2,.1,.4,.18,.59,.05,.12,.11,.24,.17,.35,.09,.18,.17,.36,.28,.54,.08,.12,.17,.25,.25,.37,.12,.17,.25,.35,.39,.52,.11,.13,.22,.26,.34,.38,.16,.17,.32,.34,.5,.51,.13,.13,.28,.26,.42,.39,.19,.17,.39,.34,.61,.51,.16,.13,.33,.26,.5,.39,.23,.17,.48,.34,.73,.51,.19,.13,.37,.25,.57,.38,.27,.17,.57,.35,.87,.52,.21,.12,.41,.24,.63,.37,.33,.18,.69,.37,1.05,.55,.21,.11,.41,.22,.63,.33,.44,.22,.9,.43,1.37,.64,.17,.08,.33,.16,.5,.23,.66,.29,1.35,.58,2.07,.87,.16,.06,.34,.13,.5,.19,.57,.22,1.15,.45,1.76,.67,.29,.1,.59,.21,.89,.31,.52,.18,1.03,.36,1.57,.54,.34,.11,.7,.22,1.05,.34,.53,.17,1.05,.33,1.6,.5,.38,.12,.78,.23,1.18,.35,.35,.1,.68,.2,1.03,.3,.15,.04,.31,.08,.46,.12,1.26,.35,2.55,.7,3.91,1.04,.73,.18,1.47,.36,2.22,.54,.15,.03,.31,.07,.45,.1,1.62,.38,3.27,.74,4.97,1.09,.1,.02,.2,.04,.3,.07,.26,.05,.54,.1,.81,.16,1.21,.24,2.44,.48,3.68,.71,.26,.05,.52,.1,.78,.15,.2,.04,.42,.07,.62,.11,1.2,.22,2.42,.42,3.66,.63,.25,.04,.5,.09,.75,.13,.06,.01,.13,.02,.19,.03,1.47,.24,2.97,.47,4.48,.69,.06,0,.11,.02,.17,.03,.35,.05,.7,.1,1.05,.15,1.09,.16,2.18,.31,3.29,.46,.15,.02,.3,.04,.46,.06,.42,.06,.86,.11,1.29,.16,.93,.12,1.86,.24,2.8,.35,.24,.03,.48,.06,.72,.09,.4,.05,.81,.09,1.21,.13,.88,.1,1.76,.2,2.65,.29,.32,.03,.64,.07,.96,.11,.35,.04,.71,.07,1.06,.1,.87,.09,1.75,.17,2.62,.26,.39,.04,.77,.08,1.15,.11,.29,.03,.59,.05,.88,.08,.88,.08,1.76,.16,2.65,.23,.44,.04,.87,.08,1.31,.11,.24,.02,.49,.04,.73,.05,.87,.07,1.75,.13,2.63,.2,.49,.04,.98,.08,1.47,.11,.2,.01,.4,.03,.6,.04,.81,.06,1.61,.11,2.42,.16,.55,.03,1.09,.07,1.64,.11,.18,.01,.37,.02,.56,.03,.76,.04,1.52,.08,2.28,.12,.59,.03,1.17,.07,1.76,.1,.19,0,.38,.02,.57,.03,.69,.03,1.39,.06,2.08,.09,.6,.03,1.2,.06,1.8,.08,.21,0,.43,.01,.64,.02,.69,.03,1.37,.05,2.06,.07,.57,.02,1.13,.04,1.7,.06,.25,0,.5,.01,.75,.02,.69,.02,1.37,.04,2.06,.05,.53,.01,1.05,.03,1.58,.04,.27,0,.54,0,.81,.01,.82,.02,1.64,.03,2.46,.04,.49,0,.99,.02,1.48,.02,.22,0,.43,0,.65,0,1.23,.01,2.46,.02,3.68,.02,.39,0,.78,0,1.16,0,.07,0,.14,0,.2,0,2.43,0,4.84-.03,7.23-.07,.23,0,.47,0,.7,0,.17,0,.33-.01,.49-.01,2.15-.04,4.28-.1,6.4-.18,.41-.01,.82-.03,1.23-.05,2.15-.08,4.28-.18,6.39-.3,.04,0,.08,0,.11,0h.03c1.67-.1,3.32-.21,4.96-.32,.49-.03,.97-.07,1.46-.11,1.16-.09,2.32-.18,3.46-.28,.29-.03,.59-.04,.87-.07,.29-.03,.58-.06,.87-.08,.77-.07,1.54-.15,2.31-.22,.63-.06,1.26-.13,1.89-.19,.75-.08,1.5-.17,2.24-.25,.41-.05,.84-.09,1.24-.14,.12-.02,.24-.03,.36-.05,2.23-.27,4.4-.57,6.51-.9,.17-.03,.36-.05,.53-.07,.44-.07,.88-.14,1.31-.21,1.45-.24,2.84-.48,4.19-.74,.14-.03,.29-.05,.43-.08,.24-.05,.44-.09,.67-.14,1.14-.22,2.24-.45,3.3-.68,.22-.05,.46-.09,.67-.14,.12-.03,.23-.06,.35-.09,1.19-.27,2.35-.55,3.43-.84h.01s.07-.02,.11-.03c1-.27,1.94-.54,2.85-.81,.08-.02,.17-.05,.25-.07,.25-.08,.46-.16,.7-.23,.57-.18,1.13-.37,1.67-.55,.12-.04,.26-.08,.39-.13,.21-.08,.39-.15,.59-.23,.45-.17,.89-.34,1.31-.51,.15-.06,.31-.12,.46-.18,.16-.07,.3-.14,.45-.21,.39-.17,.76-.34,1.12-.51,.15-.07,.33-.14,.48-.22,.12-.06,.21-.12,.33-.18,.34-.17,.66-.35,.97-.52,.15-.08,.33-.17,.47-.25,.08-.05,.14-.1,.22-.14,.3-.18,.58-.37,.85-.55,.14-.09,.3-.19,.43-.28,.05-.03,.08-.07,.13-.11,.29-.22,.55-.44,.8-.65,.1-.09,.23-.18,.33-.27,.02-.02,.03-.04,.05-.05,.35-.33,.66-.67,.93-1.01h.01c.03-.05,.04-.09,.07-.13,.23-.31,.42-.62,.57-.93,.02-.03,.05-.07,.06-.1,.04-.08,.04-.15,.07-.23,.11-.27,.19-.54,.25-.81,.01-.07,.05-.13,.06-.19,.02-.15,.04-.31,.04-.46l.31-9.54c.08-.32,.16-.63,.17-.96Zm-161.29-18.7c14.54-2.36,32.3-3.5,50.72-3.5,29.83,0,61.35,2.98,83.58,8.52,16.31,4.07,25.56,9.03,25.37,13.61-.2,4.81-11.11,9.43-29.18,12.37-38.09,6.2-98.34,3.94-134.3-5.02-16.32-4.07-25.56-9.03-25.37-13.61,.2-4.81,11.11-9.43,29.18-12.37Z"/><path class="uuid-4e1fe645-85e2-4919-a3c5-330989c33083" d="M388.7,95.04c4.4,.6,9.24,1.07,14.53,1.43,8.37,.55,16.42,.68,24.12,.38,7.69-.3,14.55-.94,20.53-1.91,16.63-2.71,21.74-6.19,15.35-10.44-3.53-2.36-10.44-4.83-20.74-7.4l-30.59-7.63-2.23,.36c3.88,1.1,5.82,1.91,5.79,2.42-.04,.51-2.24,1.12-6.63,1.83l-53.46,8.7c-4.51,.73-7.95,1.03-10.33,.9-2.37-.13-5.83-.68-10.45-1.63l-2.23,.36,31.52,7.86c8.46,2.11,16.74,3.7,24.8,4.78Zm-25.54-8.79l61.13-9.94c2-.33,3.75-.42,5.24-.29,1.5,.13,3.53,.51,6.07,1.15,10.23,2.55,15.79,5.04,16.66,7.45,1.01,2.81-4.65,5.23-16.98,7.23-13.82,2.25-27.99,2.74-42.49,1.48-9.45-.82-18.59-2.34-27.46-4.55-2.84-.71-4.4-1.23-4.69-1.55-.27-.33,.56-.65,2.52-.97Z"/></g></g></g><path class="uuid-4e1fe645-85e2-4919-a3c5-330989c33083" d="M462.14,172.12h-137.95c-7.75,0-14.04,6.29-14.04,14.04v137.95c0,7.75,6.29,14.04,14.04,14.04h137.95c7.75,0,14.04-6.29,14.04-14.04V186.16c0-7.75-6.29-14.04-14.04-14.04Zm-70.06,116.59l-15.09,15.09-2.91,2.91-44-44,18-18,26,26,65.44-65.44,18,18-65.44,65.44Z"/><g><path class="uuid-fa5690b1-50be-4f67-b361-cadc8abf017e" d="M0,373.46H4.61l7.49,11.64,7.49-11.64h4.61v24.62h-4.33v-17.65l-7.77,11.6h-.14l-7.7-11.54v17.58H0v-24.62Z"/><path class="uuid-fa5690b1-50be-4f67-b361-cadc8abf017e" d="M29.47,385.84v-.07c0-6.93,5.34-12.73,12.91-12.73s12.84,5.73,12.84,12.66v.07c0,6.93-5.35,12.73-12.91,12.73s-12.84-5.73-12.84-12.66Zm21.21,0v-.07c0-4.78-3.48-8.76-8.37-8.76s-8.3,3.9-8.3,8.69v.07c0,4.79,3.48,8.76,8.37,8.76s8.3-3.9,8.3-8.69Z"/><path class="uuid-fa5690b1-50be-4f67-b361-cadc8abf017e" d="M60.48,373.46h4.01l13.19,17.02v-17.02h4.25v24.62h-3.62l-13.58-17.51v17.51h-4.25v-24.62Z"/><path class="uuid-fa5690b1-50be-4f67-b361-cadc8abf017e" d="M88.28,373.46h18.25v3.87h-13.93v6.4h12.34v3.87h-12.34v6.61h14.1v3.87h-18.43v-24.62Z"/><path class="uuid-fa5690b1-50be-4f67-b361-cadc8abf017e" d="M119.11,388.38l-9.78-14.91h5.1l6.89,10.9,6.96-10.9h4.96l-9.78,14.8v9.81h-4.36v-9.7Z"/><path class="uuid-4e1fe645-85e2-4919-a3c5-330989c33083" d="M148.58,370.01h3.41v32.57h-3.41v-32.57Z"/><path class="uuid-fa5690b1-50be-4f67-b361-cadc8abf017e" d="M169.85,373.46h9.71c5.73,0,9.36,3.27,9.36,8.23v.07c0,5.52-4.43,8.41-9.85,8.41h-4.89v7.91h-4.33v-24.62Zm9.36,12.8c3.27,0,5.31-1.83,5.31-4.4v-.07c0-2.88-2.08-4.4-5.31-4.4h-5.03v8.86h5.03Z"/><path class="uuid-fa5690b1-50be-4f67-b361-cadc8abf017e" d="M192.27,385.84v-.07c0-6.93,5.34-12.73,12.91-12.73s12.84,5.73,12.84,12.66v.07c0,6.93-5.35,12.73-12.91,12.73s-12.84-5.73-12.84-12.66Zm21.21,0v-.07c0-4.78-3.48-8.76-8.37-8.76s-8.3,3.9-8.3,8.69v.07c0,4.79,3.48,8.76,8.37,8.76s8.3-3.9,8.3-8.69Z"/><path class="uuid-fa5690b1-50be-4f67-b361-cadc8abf017e" d="M220.05,373.46h4.68l5.87,18.25,6.05-18.32h3.66l6.05,18.32,5.87-18.25h4.54l-8.58,24.79h-3.73l-6.05-17.69-6.05,17.69h-3.73l-8.58-24.79Z"/><path class="uuid-fa5690b1-50be-4f67-b361-cadc8abf017e" d="M261.23,373.46h18.25v3.87h-13.93v6.4h12.34v3.87h-12.34v6.61h14.1v3.87h-18.43v-24.62Z"/><path class="uuid-fa5690b1-50be-4f67-b361-cadc8abf017e" d="M284.81,373.46h10.97c3.1,0,5.52,.91,7.1,2.46,1.3,1.33,2.04,3.16,2.04,5.31v.07c0,4.04-2.43,6.47-5.87,7.46l6.65,9.32h-5.1l-6.05-8.58h-5.41v8.58h-4.33v-24.62Zm10.66,12.2c3.1,0,5.06-1.62,5.06-4.12v-.07c0-2.64-1.9-4.08-5.1-4.08h-6.29v8.27h6.33Z"/><path class="uuid-4e1fe645-85e2-4919-a3c5-330989c33083" d="M321.78,370.01h3.41v32.57h-3.41v-32.57Z"/><path class="uuid-fa5690b1-50be-4f67-b361-cadc8abf017e" d="M343.03,373.46h4.01l13.19,17.02v-17.02h4.25v24.62h-3.62l-13.58-17.51v17.51h-4.25v-24.62Z"/><path class="uuid-fa5690b1-50be-4f67-b361-cadc8abf017e" d="M370.84,373.46h9.18c7.74,0,13.08,5.31,13.08,12.24v.07c0,6.93-5.34,12.31-13.08,12.31h-9.18v-24.62Zm9.18,20.68c5.17,0,8.55-3.48,8.55-8.3v-.07c0-4.82-3.38-8.37-8.55-8.37h-4.85v16.75h4.85Z"/><path class="uuid-fa5690b1-50be-4f67-b361-cadc8abf017e" d="M397.99,387.63v-14.17h4.33v13.99c0,4.57,2.35,7.04,6.22,7.04s6.19-2.32,6.19-6.86v-14.17h4.33v13.96c0,7.35-4.15,11.04-10.59,11.04s-10.48-3.69-10.48-10.83Z"/><path class="uuid-fa5690b1-50be-4f67-b361-cadc8abf017e" d="M423.93,385.84v-.07c0-6.89,5.27-12.73,12.7-12.73,4.29,0,6.93,1.19,9.46,3.34l-2.74,3.27c-1.9-1.62-3.77-2.64-6.9-2.64-4.53,0-7.98,3.98-7.98,8.69v.07c0,5.07,3.34,8.79,8.38,8.79,2.32,0,4.43-.74,5.94-1.86v-4.61h-6.29v-3.77h10.48v10.34c-2.43,2.08-5.91,3.83-10.27,3.83-7.7,0-12.76-5.49-12.76-12.66Z"/><path class="uuid-fa5690b1-50be-4f67-b361-cadc8abf017e" d="M461.34,373.28h4.01l10.83,24.8h-4.57l-2.49-5.94h-11.64l-2.53,5.94h-4.43l10.83-24.8Zm6.19,15.02l-4.25-9.85-4.22,9.85h8.47Z"/></g></svg>